<mxfile host="app.diagrams.net" agent="Mozilla/5.0 (Macintosh; Intel Mac OS X 10_15_7) AppleWebKit/537.36 (KHTML, like Gecko) Chrome/136.0.0.0 Safari/537.36 Edg/136.0.0.0" version="28.0.4">
  <diagram name="第 1 页" id="zTM7Fz_Ky5KCW-VfFxfZ">
    <mxGraphModel dx="1181" dy="648" grid="1" gridSize="10" guides="1" tooltips="1" connect="1" arrows="1" fold="1" page="1" pageScale="1" pageWidth="827" pageHeight="1169" math="0" shadow="0">
      <root>
        <mxCell id="0" />
        <mxCell id="1" parent="0" />
        <mxCell id="ga3Nk_4LsBXcovF3Ledx-15" value="" style="rounded=1;whiteSpace=wrap;html=1;dashed=1;dashPattern=12 12;" vertex="1" parent="1">
          <mxGeometry x="140" y="160" width="560" height="280" as="geometry" />
        </mxCell>
        <mxCell id="ga3Nk_4LsBXcovF3Ledx-2" value="" style="rounded=1;whiteSpace=wrap;html=1;dashed=1;dashPattern=12 12;" vertex="1" parent="1">
          <mxGeometry x="220" y="190" width="400" height="220" as="geometry" />
        </mxCell>
        <mxCell id="ga3Nk_4LsBXcovF3Ledx-1" value="" style="rounded=1;whiteSpace=wrap;html=1;" vertex="1" parent="1">
          <mxGeometry x="300" y="227.5" width="240" height="150" as="geometry" />
        </mxCell>
        <mxCell id="ga3Nk_4LsBXcovF3Ledx-8" style="edgeStyle=orthogonalEdgeStyle;rounded=0;orthogonalLoop=1;jettySize=auto;html=1;entryX=0;entryY=0.5;entryDx=0;entryDy=0;strokeWidth=2;" edge="1" parent="1" source="ga3Nk_4LsBXcovF3Ledx-5" target="ga3Nk_4LsBXcovF3Ledx-6">
          <mxGeometry relative="1" as="geometry" />
        </mxCell>
        <mxCell id="ga3Nk_4LsBXcovF3Ledx-5" value="&lt;font style=&quot;font-size: 20px;&quot;&gt;信源&lt;/font&gt;" style="ellipse;whiteSpace=wrap;html=1;aspect=fixed;flipV=1;flipH=1;" vertex="1" parent="1">
          <mxGeometry x="30" y="272.5" width="90" height="60" as="geometry" />
        </mxCell>
        <mxCell id="ga3Nk_4LsBXcovF3Ledx-11" style="edgeStyle=orthogonalEdgeStyle;rounded=0;orthogonalLoop=1;jettySize=auto;html=1;entryX=0.5;entryY=1;entryDx=0;entryDy=0;strokeWidth=2;" edge="1" parent="1" source="ga3Nk_4LsBXcovF3Ledx-6" target="ga3Nk_4LsBXcovF3Ledx-13">
          <mxGeometry relative="1" as="geometry">
            <mxPoint x="240" y="302.5" as="targetPoint" />
          </mxGeometry>
        </mxCell>
        <mxCell id="ga3Nk_4LsBXcovF3Ledx-6" value="&lt;font style=&quot;font-size: 20px;&quot; face=&quot;Helvetica&quot;&gt;数据预处理&lt;/font&gt;" style="rounded=0;whiteSpace=wrap;html=1;flipH=1;flipV=0;direction=east;container=0;" vertex="1" parent="1">
          <mxGeometry x="160" y="222.5" width="40" height="160" as="geometry" />
        </mxCell>
        <mxCell id="ga3Nk_4LsBXcovF3Ledx-44" style="edgeStyle=orthogonalEdgeStyle;rounded=0;orthogonalLoop=1;jettySize=auto;html=1;entryX=0;entryY=0.5;entryDx=0;entryDy=0;strokeWidth=2;" edge="1" parent="1" source="ga3Nk_4LsBXcovF3Ledx-13" target="ga3Nk_4LsBXcovF3Ledx-1">
          <mxGeometry relative="1" as="geometry" />
        </mxCell>
        <mxCell id="ga3Nk_4LsBXcovF3Ledx-13" value="&lt;font style=&quot;font-size: 20px;&quot;&gt;编码器&lt;/font&gt;" style="shape=trapezoid;perimeter=trapezoidPerimeter;whiteSpace=wrap;html=1;fixedSize=1;direction=south;" vertex="1" parent="1">
          <mxGeometry x="240" y="242.5" width="40" height="120" as="geometry" />
        </mxCell>
        <mxCell id="ga3Nk_4LsBXcovF3Ledx-35" style="edgeStyle=orthogonalEdgeStyle;rounded=0;orthogonalLoop=1;jettySize=auto;html=1;entryX=0;entryY=0.5;entryDx=0;entryDy=0;strokeWidth=2;" edge="1" parent="1" source="ga3Nk_4LsBXcovF3Ledx-14" target="ga3Nk_4LsBXcovF3Ledx-33">
          <mxGeometry relative="1" as="geometry" />
        </mxCell>
        <mxCell id="ga3Nk_4LsBXcovF3Ledx-14" value="&lt;font style=&quot;font-size: 20px;&quot;&gt;解码器&lt;/font&gt;" style="shape=trapezoid;perimeter=trapezoidPerimeter;whiteSpace=wrap;html=1;fixedSize=1;direction=north;" vertex="1" parent="1">
          <mxGeometry x="560" y="242.5" width="40" height="120" as="geometry" />
        </mxCell>
        <mxCell id="ga3Nk_4LsBXcovF3Ledx-18" value="" style="ellipse;whiteSpace=wrap;html=1;aspect=fixed;" vertex="1" parent="1">
          <mxGeometry x="405" y="230" width="20" height="20" as="geometry" />
        </mxCell>
        <mxCell id="ga3Nk_4LsBXcovF3Ledx-19" value="" style="ellipse;whiteSpace=wrap;html=1;aspect=fixed;" vertex="1" parent="1">
          <mxGeometry x="405" y="262.5" width="20" height="20" as="geometry" />
        </mxCell>
        <mxCell id="ga3Nk_4LsBXcovF3Ledx-20" value="" style="ellipse;whiteSpace=wrap;html=1;aspect=fixed;" vertex="1" parent="1">
          <mxGeometry x="405" y="297.5" width="20" height="20" as="geometry" />
        </mxCell>
        <mxCell id="ga3Nk_4LsBXcovF3Ledx-21" value="" style="ellipse;whiteSpace=wrap;html=1;aspect=fixed;" vertex="1" parent="1">
          <mxGeometry x="405" y="330" width="20" height="20" as="geometry" />
        </mxCell>
        <mxCell id="ga3Nk_4LsBXcovF3Ledx-32" value="&lt;font style=&quot;font-size: 20px;&quot;&gt;信宿&lt;/font&gt;" style="ellipse;whiteSpace=wrap;html=1;aspect=fixed;flipV=1;flipH=1;" vertex="1" parent="1">
          <mxGeometry x="720" y="272.5" width="90" height="60" as="geometry" />
        </mxCell>
        <mxCell id="ga3Nk_4LsBXcovF3Ledx-36" style="edgeStyle=orthogonalEdgeStyle;rounded=0;orthogonalLoop=1;jettySize=auto;html=1;entryX=0;entryY=0.5;entryDx=0;entryDy=0;strokeWidth=2;" edge="1" parent="1" source="ga3Nk_4LsBXcovF3Ledx-33" target="ga3Nk_4LsBXcovF3Ledx-32">
          <mxGeometry relative="1" as="geometry" />
        </mxCell>
        <mxCell id="ga3Nk_4LsBXcovF3Ledx-33" value="&lt;font style=&quot;font-size: 20px;&quot; face=&quot;Helvetica&quot;&gt;数据后处理&lt;/font&gt;" style="rounded=0;whiteSpace=wrap;html=1;flipH=1;flipV=0;direction=east;container=0;" vertex="1" parent="1">
          <mxGeometry x="640" y="222.5" width="40" height="160" as="geometry" />
        </mxCell>
        <mxCell id="ga3Nk_4LsBXcovF3Ledx-38" value="" style="ellipse;whiteSpace=wrap;html=1;aspect=fixed;" vertex="1" parent="1">
          <mxGeometry x="330" y="253.25" width="20" height="20" as="geometry" />
        </mxCell>
        <mxCell id="ga3Nk_4LsBXcovF3Ledx-39" value="" style="ellipse;whiteSpace=wrap;html=1;aspect=fixed;" vertex="1" parent="1">
          <mxGeometry x="330" y="282.5" width="20" height="20" as="geometry" />
        </mxCell>
        <mxCell id="ga3Nk_4LsBXcovF3Ledx-40" value="" style="ellipse;whiteSpace=wrap;html=1;aspect=fixed;" vertex="1" parent="1">
          <mxGeometry x="330" y="312.5" width="20" height="20" as="geometry" />
        </mxCell>
        <mxCell id="ga3Nk_4LsBXcovF3Ledx-47" value="" style="endArrow=none;html=1;rounded=0;exitX=1;exitY=0.5;exitDx=0;exitDy=0;entryX=0;entryY=0.5;entryDx=0;entryDy=0;" edge="1" parent="1" source="ga3Nk_4LsBXcovF3Ledx-38" target="ga3Nk_4LsBXcovF3Ledx-18">
          <mxGeometry width="50" height="50" relative="1" as="geometry">
            <mxPoint x="355" y="282.25" as="sourcePoint" />
            <mxPoint x="405" y="232.25" as="targetPoint" />
          </mxGeometry>
        </mxCell>
        <mxCell id="ga3Nk_4LsBXcovF3Ledx-48" value="" style="endArrow=none;html=1;rounded=0;exitX=1;exitY=0.5;exitDx=0;exitDy=0;entryX=0;entryY=0.5;entryDx=0;entryDy=0;" edge="1" parent="1" source="ga3Nk_4LsBXcovF3Ledx-38" target="ga3Nk_4LsBXcovF3Ledx-19">
          <mxGeometry width="50" height="50" relative="1" as="geometry">
            <mxPoint x="360" y="289" as="sourcePoint" />
            <mxPoint x="385" y="280" as="targetPoint" />
          </mxGeometry>
        </mxCell>
        <mxCell id="ga3Nk_4LsBXcovF3Ledx-49" value="" style="endArrow=none;html=1;rounded=0;exitX=1;exitY=0.5;exitDx=0;exitDy=0;entryX=0;entryY=0.5;entryDx=0;entryDy=0;" edge="1" parent="1" source="ga3Nk_4LsBXcovF3Ledx-38" target="ga3Nk_4LsBXcovF3Ledx-20">
          <mxGeometry width="50" height="50" relative="1" as="geometry">
            <mxPoint x="360" y="290" as="sourcePoint" />
            <mxPoint x="385" y="298" as="targetPoint" />
          </mxGeometry>
        </mxCell>
        <mxCell id="ga3Nk_4LsBXcovF3Ledx-50" value="" style="endArrow=none;html=1;rounded=0;exitX=1;exitY=0.5;exitDx=0;exitDy=0;entryX=0;entryY=0.5;entryDx=0;entryDy=0;" edge="1" parent="1" source="ga3Nk_4LsBXcovF3Ledx-38" target="ga3Nk_4LsBXcovF3Ledx-21">
          <mxGeometry width="50" height="50" relative="1" as="geometry">
            <mxPoint x="350" y="290" as="sourcePoint" />
            <mxPoint x="375" y="298" as="targetPoint" />
          </mxGeometry>
        </mxCell>
        <mxCell id="ga3Nk_4LsBXcovF3Ledx-51" value="" style="endArrow=none;html=1;rounded=0;exitX=1;exitY=0.5;exitDx=0;exitDy=0;entryX=0;entryY=0.5;entryDx=0;entryDy=0;" edge="1" parent="1" source="ga3Nk_4LsBXcovF3Ledx-39" target="ga3Nk_4LsBXcovF3Ledx-18">
          <mxGeometry width="50" height="50" relative="1" as="geometry">
            <mxPoint x="350" y="290" as="sourcePoint" />
            <mxPoint x="375" y="298" as="targetPoint" />
          </mxGeometry>
        </mxCell>
        <mxCell id="ga3Nk_4LsBXcovF3Ledx-52" value="" style="endArrow=none;html=1;rounded=0;exitX=1;exitY=0.5;exitDx=0;exitDy=0;entryX=0;entryY=0.5;entryDx=0;entryDy=0;" edge="1" parent="1" source="ga3Nk_4LsBXcovF3Ledx-39" target="ga3Nk_4LsBXcovF3Ledx-20">
          <mxGeometry width="50" height="50" relative="1" as="geometry">
            <mxPoint x="370" y="290" as="sourcePoint" />
            <mxPoint x="395" y="298" as="targetPoint" />
          </mxGeometry>
        </mxCell>
        <mxCell id="ga3Nk_4LsBXcovF3Ledx-53" value="" style="endArrow=none;html=1;rounded=0;exitX=1;exitY=0.5;exitDx=0;exitDy=0;entryX=0;entryY=0.5;entryDx=0;entryDy=0;" edge="1" parent="1" source="ga3Nk_4LsBXcovF3Ledx-39" target="ga3Nk_4LsBXcovF3Ledx-19">
          <mxGeometry width="50" height="50" relative="1" as="geometry">
            <mxPoint x="350" y="300" as="sourcePoint" />
            <mxPoint x="375" y="308" as="targetPoint" />
          </mxGeometry>
        </mxCell>
        <mxCell id="ga3Nk_4LsBXcovF3Ledx-54" value="" style="endArrow=none;html=1;rounded=0;exitX=1;exitY=0.5;exitDx=0;exitDy=0;entryX=0;entryY=0.5;entryDx=0;entryDy=0;" edge="1" parent="1" source="ga3Nk_4LsBXcovF3Ledx-39" target="ga3Nk_4LsBXcovF3Ledx-21">
          <mxGeometry width="50" height="50" relative="1" as="geometry">
            <mxPoint x="370" y="300" as="sourcePoint" />
            <mxPoint x="395" y="308" as="targetPoint" />
          </mxGeometry>
        </mxCell>
        <mxCell id="ga3Nk_4LsBXcovF3Ledx-55" value="" style="endArrow=none;html=1;rounded=0;exitX=1;exitY=0.5;exitDx=0;exitDy=0;entryX=0;entryY=0.5;entryDx=0;entryDy=0;" edge="1" parent="1" source="ga3Nk_4LsBXcovF3Ledx-40" target="ga3Nk_4LsBXcovF3Ledx-18">
          <mxGeometry width="50" height="50" relative="1" as="geometry">
            <mxPoint x="360" y="310" as="sourcePoint" />
            <mxPoint x="385" y="318" as="targetPoint" />
          </mxGeometry>
        </mxCell>
        <mxCell id="ga3Nk_4LsBXcovF3Ledx-56" value="" style="endArrow=none;html=1;rounded=0;exitX=1;exitY=0.5;exitDx=0;exitDy=0;entryX=0;entryY=0.5;entryDx=0;entryDy=0;" edge="1" parent="1" source="ga3Nk_4LsBXcovF3Ledx-40" target="ga3Nk_4LsBXcovF3Ledx-20">
          <mxGeometry width="50" height="50" relative="1" as="geometry">
            <mxPoint x="370" y="300" as="sourcePoint" />
            <mxPoint x="395" y="308" as="targetPoint" />
          </mxGeometry>
        </mxCell>
        <mxCell id="ga3Nk_4LsBXcovF3Ledx-57" value="" style="endArrow=none;html=1;rounded=0;exitX=1;exitY=0.5;exitDx=0;exitDy=0;entryX=0;entryY=0.5;entryDx=0;entryDy=0;" edge="1" parent="1" source="ga3Nk_4LsBXcovF3Ledx-40" target="ga3Nk_4LsBXcovF3Ledx-19">
          <mxGeometry width="50" height="50" relative="1" as="geometry">
            <mxPoint x="390" y="310" as="sourcePoint" />
            <mxPoint x="415" y="318" as="targetPoint" />
          </mxGeometry>
        </mxCell>
        <mxCell id="ga3Nk_4LsBXcovF3Ledx-58" value="" style="endArrow=none;html=1;rounded=0;exitX=1;exitY=0.5;exitDx=0;exitDy=0;entryX=0;entryY=0.5;entryDx=0;entryDy=0;" edge="1" parent="1" source="ga3Nk_4LsBXcovF3Ledx-40" target="ga3Nk_4LsBXcovF3Ledx-21">
          <mxGeometry width="50" height="50" relative="1" as="geometry">
            <mxPoint x="370" y="310" as="sourcePoint" />
            <mxPoint x="395" y="318" as="targetPoint" />
          </mxGeometry>
        </mxCell>
        <mxCell id="ga3Nk_4LsBXcovF3Ledx-59" value="" style="ellipse;whiteSpace=wrap;html=1;aspect=fixed;" vertex="1" parent="1">
          <mxGeometry x="480" y="252.87" width="20" height="20" as="geometry" />
        </mxCell>
        <mxCell id="ga3Nk_4LsBXcovF3Ledx-60" value="" style="ellipse;whiteSpace=wrap;html=1;aspect=fixed;" vertex="1" parent="1">
          <mxGeometry x="480" y="282.12" width="20" height="20" as="geometry" />
        </mxCell>
        <mxCell id="ga3Nk_4LsBXcovF3Ledx-61" value="" style="ellipse;whiteSpace=wrap;html=1;aspect=fixed;" vertex="1" parent="1">
          <mxGeometry x="480" y="312.12" width="20" height="20" as="geometry" />
        </mxCell>
        <mxCell id="ga3Nk_4LsBXcovF3Ledx-62" value="" style="endArrow=none;html=1;rounded=0;exitX=1;exitY=0.5;exitDx=0;exitDy=0;entryX=0;entryY=0.5;entryDx=0;entryDy=0;" edge="1" parent="1" source="ga3Nk_4LsBXcovF3Ledx-18" target="ga3Nk_4LsBXcovF3Ledx-60">
          <mxGeometry width="50" height="50" relative="1" as="geometry">
            <mxPoint x="420" y="284" as="sourcePoint" />
            <mxPoint x="475" y="260" as="targetPoint" />
          </mxGeometry>
        </mxCell>
        <mxCell id="ga3Nk_4LsBXcovF3Ledx-63" value="" style="endArrow=none;html=1;rounded=0;exitX=1;exitY=0.5;exitDx=0;exitDy=0;entryX=0;entryY=0.5;entryDx=0;entryDy=0;" edge="1" parent="1" source="ga3Nk_4LsBXcovF3Ledx-18" target="ga3Nk_4LsBXcovF3Ledx-59">
          <mxGeometry width="50" height="50" relative="1" as="geometry">
            <mxPoint x="460" y="280" as="sourcePoint" />
            <mxPoint x="515" y="333" as="targetPoint" />
          </mxGeometry>
        </mxCell>
        <mxCell id="ga3Nk_4LsBXcovF3Ledx-64" value="" style="endArrow=none;html=1;rounded=0;exitX=1;exitY=0.5;exitDx=0;exitDy=0;entryX=0;entryY=0.5;entryDx=0;entryDy=0;" edge="1" parent="1" source="ga3Nk_4LsBXcovF3Ledx-18" target="ga3Nk_4LsBXcovF3Ledx-61">
          <mxGeometry width="50" height="50" relative="1" as="geometry">
            <mxPoint x="460" y="260" as="sourcePoint" />
            <mxPoint x="515" y="283" as="targetPoint" />
          </mxGeometry>
        </mxCell>
        <mxCell id="ga3Nk_4LsBXcovF3Ledx-65" value="" style="endArrow=none;html=1;rounded=0;exitX=1;exitY=0.5;exitDx=0;exitDy=0;entryX=0;entryY=0.5;entryDx=0;entryDy=0;" edge="1" parent="1" source="ga3Nk_4LsBXcovF3Ledx-19" target="ga3Nk_4LsBXcovF3Ledx-59">
          <mxGeometry width="50" height="50" relative="1" as="geometry">
            <mxPoint x="450" y="300" as="sourcePoint" />
            <mxPoint x="505" y="383" as="targetPoint" />
          </mxGeometry>
        </mxCell>
        <mxCell id="ga3Nk_4LsBXcovF3Ledx-66" value="" style="endArrow=none;html=1;rounded=0;exitX=1;exitY=0.5;exitDx=0;exitDy=0;entryX=0;entryY=0.5;entryDx=0;entryDy=0;" edge="1" parent="1" source="ga3Nk_4LsBXcovF3Ledx-19" target="ga3Nk_4LsBXcovF3Ledx-60">
          <mxGeometry width="50" height="50" relative="1" as="geometry">
            <mxPoint x="450" y="280" as="sourcePoint" />
            <mxPoint x="505" y="270" as="targetPoint" />
          </mxGeometry>
        </mxCell>
        <mxCell id="ga3Nk_4LsBXcovF3Ledx-67" value="" style="endArrow=none;html=1;rounded=0;exitX=1;exitY=0.5;exitDx=0;exitDy=0;entryX=0;entryY=0.5;entryDx=0;entryDy=0;" edge="1" parent="1" source="ga3Nk_4LsBXcovF3Ledx-19" target="ga3Nk_4LsBXcovF3Ledx-61">
          <mxGeometry width="50" height="50" relative="1" as="geometry">
            <mxPoint x="490" y="320" as="sourcePoint" />
            <mxPoint x="545" y="310" as="targetPoint" />
          </mxGeometry>
        </mxCell>
        <mxCell id="ga3Nk_4LsBXcovF3Ledx-68" value="" style="endArrow=none;html=1;rounded=0;exitX=1;exitY=0.5;exitDx=0;exitDy=0;entryX=0;entryY=0.5;entryDx=0;entryDy=0;" edge="1" parent="1" source="ga3Nk_4LsBXcovF3Ledx-20" target="ga3Nk_4LsBXcovF3Ledx-59">
          <mxGeometry width="50" height="50" relative="1" as="geometry">
            <mxPoint x="510" y="340" as="sourcePoint" />
            <mxPoint x="565" y="330" as="targetPoint" />
          </mxGeometry>
        </mxCell>
        <mxCell id="ga3Nk_4LsBXcovF3Ledx-69" value="" style="endArrow=none;html=1;rounded=0;exitX=1;exitY=0.5;exitDx=0;exitDy=0;entryX=0;entryY=0.5;entryDx=0;entryDy=0;" edge="1" parent="1" source="ga3Nk_4LsBXcovF3Ledx-20" target="ga3Nk_4LsBXcovF3Ledx-60">
          <mxGeometry width="50" height="50" relative="1" as="geometry">
            <mxPoint x="450" y="346" as="sourcePoint" />
            <mxPoint x="505" y="300" as="targetPoint" />
          </mxGeometry>
        </mxCell>
        <mxCell id="ga3Nk_4LsBXcovF3Ledx-70" value="" style="endArrow=none;html=1;rounded=0;exitX=1;exitY=0.5;exitDx=0;exitDy=0;entryX=0;entryY=0.5;entryDx=0;entryDy=0;" edge="1" parent="1" source="ga3Nk_4LsBXcovF3Ledx-21" target="ga3Nk_4LsBXcovF3Ledx-61">
          <mxGeometry width="50" height="50" relative="1" as="geometry">
            <mxPoint x="480" y="366" as="sourcePoint" />
            <mxPoint x="535" y="320" as="targetPoint" />
          </mxGeometry>
        </mxCell>
        <mxCell id="ga3Nk_4LsBXcovF3Ledx-71" value="" style="endArrow=none;html=1;rounded=0;entryX=0;entryY=0.5;entryDx=0;entryDy=0;exitX=1;exitY=0.5;exitDx=0;exitDy=0;" edge="1" parent="1" source="ga3Nk_4LsBXcovF3Ledx-21" target="ga3Nk_4LsBXcovF3Ledx-60">
          <mxGeometry width="50" height="50" relative="1" as="geometry">
            <mxPoint x="430" y="350" as="sourcePoint" />
            <mxPoint x="515" y="330" as="targetPoint" />
          </mxGeometry>
        </mxCell>
        <mxCell id="ga3Nk_4LsBXcovF3Ledx-72" value="" style="endArrow=none;html=1;rounded=0;exitX=1;exitY=0.5;exitDx=0;exitDy=0;entryX=0;entryY=0.5;entryDx=0;entryDy=0;" edge="1" parent="1" source="ga3Nk_4LsBXcovF3Ledx-21" target="ga3Nk_4LsBXcovF3Ledx-59">
          <mxGeometry width="50" height="50" relative="1" as="geometry">
            <mxPoint x="440" y="368" as="sourcePoint" />
            <mxPoint x="480" y="280" as="targetPoint" />
          </mxGeometry>
        </mxCell>
        <mxCell id="ga3Nk_4LsBXcovF3Ledx-73" value="" style="endArrow=none;html=1;rounded=0;exitX=1;exitY=0.5;exitDx=0;exitDy=0;entryX=-0.024;entryY=0.445;entryDx=0;entryDy=0;entryPerimeter=0;" edge="1" parent="1" source="ga3Nk_4LsBXcovF3Ledx-20" target="ga3Nk_4LsBXcovF3Ledx-61">
          <mxGeometry width="50" height="50" relative="1" as="geometry">
            <mxPoint x="430" y="325" as="sourcePoint" />
            <mxPoint x="485" y="310" as="targetPoint" />
          </mxGeometry>
        </mxCell>
        <mxCell id="ga3Nk_4LsBXcovF3Ledx-74" value="深度学习模型" style="text;html=1;align=center;verticalAlign=middle;whiteSpace=wrap;rounded=0;" vertex="1" parent="1">
          <mxGeometry x="377.5" y="380" width="75" height="30" as="geometry" />
        </mxCell>
        <mxCell id="ga3Nk_4LsBXcovF3Ledx-75" value="端侧模型" style="text;html=1;align=center;verticalAlign=middle;whiteSpace=wrap;rounded=0;" vertex="1" parent="1">
          <mxGeometry x="385" y="410" width="60" height="30" as="geometry" />
        </mxCell>
        <mxCell id="ga3Nk_4LsBXcovF3Ledx-76" value="可选择模型" style="text;html=1;align=center;verticalAlign=middle;whiteSpace=wrap;rounded=0;" vertex="1" parent="1">
          <mxGeometry x="376" y="350" width="75" height="30" as="geometry" />
        </mxCell>
        <mxCell id="ga3Nk_4LsBXcovF3Ledx-77" value="" style="endArrow=classic;html=1;rounded=0;entryX=0.5;entryY=0;entryDx=0;entryDy=0;exitX=1;exitY=0.5;exitDx=0;exitDy=0;strokeWidth=2;" edge="1" parent="1" source="ga3Nk_4LsBXcovF3Ledx-1" target="ga3Nk_4LsBXcovF3Ledx-14">
          <mxGeometry width="50" height="50" relative="1" as="geometry">
            <mxPoint x="540" y="310" as="sourcePoint" />
            <mxPoint x="590" y="260" as="targetPoint" />
          </mxGeometry>
        </mxCell>
      </root>
    </mxGraphModel>
  </diagram>
</mxfile>
